<?xml version="1.0" standalone="no"?>
<!DOCTYPE svg PUBLIC "-//W3C//DTD SVG 20010904//EN"
 "http://www.w3.org/TR/2001/REC-SVG-20010904/DTD/svg10.dtd">
<svg version="1.0" xmlns="http://www.w3.org/2000/svg"
 width="512.000000pt" height="512.000000pt" viewBox="0 0 512.000000 512.000000"
 preserveAspectRatio="xMidYMid meet">

<g transform="translate(0.000000,512.000000) scale(0.100000,-0.100000)"
fill="#000000" stroke="none">
<path d="M3150 4578 c-531 -135 -711 -185 -727 -201 -26 -23 -31 -73 -10 -99
6 -9 96 -77 200 -153 103 -75 187 -138 187 -139 0 -1 -18 -92 -40 -201 -22
-109 -40 -220 -40 -246 0 -215 322 -499 685 -604 208 -60 472 -71 666 -26 233
53 415 170 454 291 5 14 27 117 50 229 l41 205 229 58 c190 49 234 63 253 84
30 33 28 67 -5 103 -16 17 -257 198 -538 402 -685 501 -654 479 -679 478 -11
-1 -338 -82 -726 -181z m1206 -350 c387 -283 491 -364 477 -370 -10 -4 -278
-73 -596 -153 l-577 -146 -238 174 c-130 95 -353 258 -495 362 -168 123 -254
191 -245 196 7 4 247 66 533 138 286 72 543 137 570 145 28 8 56 15 63 15 7 1
236 -162 508 -361z m-1084 -584 c176 -129 330 -240 343 -246 17 -8 106 12 420
91 219 56 400 100 402 97 2 -2 -10 -79 -28 -171 -30 -156 -34 -171 -65 -205
-113 -125 -468 -200 -736 -156 -280 46 -526 178 -670 359 -64 81 -65 99 -28
296 18 94 35 171 37 171 2 0 148 -106 325 -236z"/>
<path d="M632 3547 c-54 -20 -103 -67 -128 -122 l-24 -52 2 -1267 3 -1266
-218 0 -218 0 -24 -25 c-68 -67 6 -290 127 -386 95 -75 -93 -69 2328 -69 1899
0 2183 2 2227 15 134 40 236 181 250 347 5 62 4 68 -20 92 l-26 26 -218 0
-218 0 3 975 2 976 -24 24 c-33 33 -79 33 -111 0 l-25 -24 0 -951 0 -951 -25
-24 -24 -25 -1791 0 -1791 0 -24 25 -25 24 0 1234 0 1234 23 21 23 22 902 0
c639 0 908 3 925 11 49 22 61 86 22 124 l-24 25 -923 -1 c-684 0 -931 -4 -956
-12z m4158 -2872 c0 -3 -9 -22 -19 -43 -23 -45 -66 -87 -104 -101 -40 -15
-4334 -15 -4374 0 -38 14 -81 56 -104 101 -10 21 -19 40 -19 43 0 3 1040 5
2310 5 1271 0 2310 -2 2310 -5z"/>
<path d="M1940 2850 c-20 -20 -20 -33 -20 -769 l0 -750 26 -20 c15 -12 38 -21
51 -21 24 0 1378 703 1414 734 27 22 35 65 18 94 -20 36 -1387 752 -1435 752
-21 0 -42 -8 -54 -20z m803 -535 c240 -126 437 -232 437 -235 0 -3 -190 -104
-422 -225 -233 -121 -480 -250 -550 -287 l-128 -67 0 580 0 581 113 -59 c61
-33 309 -162 550 -288z"/>
</g>
</svg>
